<?xml version="1.0" encoding="UTF-8" standalone="no"?>
<!DOCTYPE svg PUBLIC "-//W3C//DTD SVG 1.1//EN"
 "http://www.w3.org/Graphics/SVG/1.1/DTD/svg11.dtd">
<!-- Generated by graphviz version 2.38.0 (20140413.2041)
 -->
<!-- Title: ADR2 data flow Pages: 1 -->
<svg width="217pt" height="351pt"
 viewBox="0.00 0.00 217.30 351.28" xmlns="http://www.w3.org/2000/svg" xmlns:xlink="http://www.w3.org/1999/xlink">
<g id="graph0" class="graph" transform="scale(1 1) rotate(0) translate(4 347.279)">
<title>ADR2 data flow</title>
<polygon fill="white" stroke="none" points="-4,4 -4,-347.279 213.304,-347.279 213.304,4 -4,4"/>
<!-- process/
init/app -->
<g id="node1" class="node"><title>process/
init/app</title>
<ellipse fill="none" stroke="#cc2222" cx="104.652" cy="-21.2132" rx="41.9398" ry="21.4286"/>
<text text-anchor="middle" x="104.652" y="-24.2132" font-family="Ubuntu Mono,Envy Code R,Oxygen Mono,Consolas,Menlo,Monaco,Andale Mono" font-size="10.00">process/</text>
<text text-anchor="middle" x="104.652" y="-13.2132" font-family="Ubuntu Mono,Envy Code R,Oxygen Mono,Consolas,Menlo,Monaco,Andale Mono" font-size="10.00">init/app</text>
</g>
<!-- process/
init/relation/articles -->
<g id="node2" class="node"><title>process/
init/relation/articles</title>
<ellipse fill="none" stroke="#cc2222" cx="104.652" cy="-99.6396" rx="93.1765" ry="21.4286"/>
<text text-anchor="middle" x="104.652" y="-102.64" font-family="Ubuntu Mono,Envy Code R,Oxygen Mono,Consolas,Menlo,Monaco,Andale Mono" font-size="10.00">process/</text>
<text text-anchor="middle" x="104.652" y="-91.6396" font-family="Ubuntu Mono,Envy Code R,Oxygen Mono,Consolas,Menlo,Monaco,Andale Mono" font-size="10.00">init/relation/articles</text>
</g>
<!-- process/
init/app&#45;&gt;process/
init/relation/articles -->
<g id="edge1" class="edge"><title>process/
init/app&#45;&gt;process/
init/relation/articles</title>
<path fill="none" stroke="#999999" d="M104.652,-42.6941C104.652,-50.5527 104.652,-59.697 104.652,-68.2873"/>
<polygon fill="#999999" stroke="#999999" points="101.152,-68.3672 104.652,-78.3672 108.152,-68.3672 101.152,-68.3672"/>
</g>
<!-- data/
articles -->
<g id="node4" class="node"><title>data/
articles</title>
<polygon fill="none" stroke="#2222cc" points="134.152,-192.853 79.1518,-192.853 75.1518,-188.853 75.1518,-156.853 130.152,-156.853 134.152,-160.853 134.152,-192.853"/>
<polyline fill="none" stroke="#2222cc" points="130.152,-188.853 75.1518,-188.853 "/>
<polyline fill="none" stroke="#2222cc" points="130.152,-188.853 130.152,-156.853 "/>
<polyline fill="none" stroke="#2222cc" points="130.152,-188.853 134.152,-192.853 "/>
<text text-anchor="middle" x="104.652" y="-177.853" font-family="Ubuntu Mono,Envy Code R,Oxygen Mono,Consolas,Menlo,Monaco,Andale Mono" font-size="10.00">data/</text>
<text text-anchor="middle" x="104.652" y="-166.853" font-family="Ubuntu Mono,Envy Code R,Oxygen Mono,Consolas,Menlo,Monaco,Andale Mono" font-size="10.00">articles</text>
</g>
<!-- process/
init/relation/articles&#45;&gt;data/
articles -->
<g id="edge3" class="edge"><title>process/
init/relation/articles&#45;&gt;data/
articles</title>
<path fill="none" stroke="#999999" d="M104.652,-121.034C104.652,-128.888 104.652,-137.989 104.652,-146.402"/>
<polygon fill="#999999" stroke="#999999" points="101.152,-146.543 104.652,-156.543 108.152,-146.543 101.152,-146.543"/>
</g>
<!-- process/
ext_sentence_by_nlp_fenci -->
<g id="node3" class="node"><title>process/
ext_sentence_by_nlp_fenci</title>
<ellipse fill="none" stroke="#cc2222" cx="104.652" cy="-250.066" rx="104.804" ry="21.4286"/>
<text text-anchor="middle" x="104.652" y="-253.066" font-family="Ubuntu Mono,Envy Code R,Oxygen Mono,Consolas,Menlo,Monaco,Andale Mono" font-size="10.00">process/</text>
<text text-anchor="middle" x="104.652" y="-242.066" font-family="Ubuntu Mono,Envy Code R,Oxygen Mono,Consolas,Menlo,Monaco,Andale Mono" font-size="10.00">ext_sentence_by_nlp_fenci</text>
</g>
<!-- data/
sentence -->
<g id="node5" class="node"><title>data/
sentence</title>
<polygon fill="none" stroke="#2222cc" points="134.152,-343.279 79.1518,-343.279 75.1518,-339.279 75.1518,-307.279 130.152,-307.279 134.152,-311.279 134.152,-343.279"/>
<polyline fill="none" stroke="#2222cc" points="130.152,-339.279 75.1518,-339.279 "/>
<polyline fill="none" stroke="#2222cc" points="130.152,-339.279 130.152,-307.279 "/>
<polyline fill="none" stroke="#2222cc" points="130.152,-339.279 134.152,-343.279 "/>
<text text-anchor="middle" x="104.652" y="-328.279" font-family="Ubuntu Mono,Envy Code R,Oxygen Mono,Consolas,Menlo,Monaco,Andale Mono" font-size="10.00">data/</text>
<text text-anchor="middle" x="104.652" y="-317.279" font-family="Ubuntu Mono,Envy Code R,Oxygen Mono,Consolas,Menlo,Monaco,Andale Mono" font-size="10.00">sentence</text>
</g>
<!-- process/
ext_sentence_by_nlp_fenci&#45;&gt;data/
sentence -->
<g id="edge4" class="edge"><title>process/
ext_sentence_by_nlp_fenci&#45;&gt;data/
sentence</title>
<path fill="none" stroke="#999999" d="M104.652,-271.46C104.652,-279.314 104.652,-288.416 104.652,-296.828"/>
<polygon fill="#999999" stroke="#999999" points="101.152,-296.969 104.652,-306.969 108.152,-296.969 101.152,-296.969"/>
</g>
<!-- data/
articles&#45;&gt;process/
ext_sentence_by_nlp_fenci -->
<g id="edge2" class="edge"><title>data/
articles&#45;&gt;process/
ext_sentence_by_nlp_fenci</title>
<path fill="none" stroke="#999999" d="M104.652,-193.203C104.652,-200.779 104.652,-209.893 104.652,-218.541"/>
<polygon fill="#999999" stroke="#999999" points="101.152,-218.724 104.652,-228.724 108.152,-218.724 101.152,-218.724"/>
</g>
</g>
</svg>
